<mxfile host="Electron" modified="2024-02-11T03:42:32.427Z" agent="Mozilla/5.0 (Windows NT 10.0; Win64; x64) AppleWebKit/537.36 (KHTML, like Gecko) draw.io/23.0.2 Chrome/120.0.6099.109 Electron/28.1.0 Safari/537.36" etag="o1R_7lZ23YA5YVvhdybT" version="23.0.2" type="device">
  <diagram name="Page-1" id="CxSLxoRgWag2I3Bug0xF">
    <mxGraphModel dx="4780" dy="2847" grid="1" gridSize="10" guides="1" tooltips="1" connect="1" arrows="1" fold="1" page="1" pageScale="1" pageWidth="850" pageHeight="1400" math="0" shadow="0">
      <root>
        <mxCell id="0" />
        <mxCell id="1" parent="0" />
        <mxCell id="F2z6CYoA8_rbXcpVKslj-1" value="" style="rounded=0;whiteSpace=wrap;html=1;sketch=1;hachureGap=4;jiggle=2;curveFitting=1;fontFamily=Architects Daughter;fontSource=https%3A%2F%2Ffonts.googleapis.com%2Fcss%3Ffamily%3DArchitects%2BDaughter;fontSize=20;" vertex="1" parent="1">
          <mxGeometry x="40" y="40" width="1440" height="4050" as="geometry" />
        </mxCell>
        <mxCell id="F2z6CYoA8_rbXcpVKslj-2" value="Discover Your Culinary Potential" style="rounded=0;whiteSpace=wrap;html=1;sketch=1;hachureGap=4;jiggle=2;curveFitting=1;fontFamily=Architects Daughter;fontSource=https%3A%2F%2Ffonts.googleapis.com%2Fcss%3Ffamily%3DArchitects%2BDaughter;fontSize=200;align=left;spacing=24;" vertex="1" parent="1">
          <mxGeometry x="40" y="40" width="1440" height="840" as="geometry" />
        </mxCell>
        <mxCell id="F2z6CYoA8_rbXcpVKslj-3" value="&lt;div class=&quot;flex flex-grow flex-col max-w-full&quot; style=&quot;font-size: 48px;&quot;&gt;&lt;div class=&quot;min-h-[20px] text-message flex flex-col items-start gap-3 whitespace-pre-wrap break-words [.text-message+&amp;amp;]:mt-5 overflow-x-auto&quot; data-message-id=&quot;21cb947c-45a8-4a94-b8b2-4fee92300908&quot; data-message-author-role=&quot;assistant&quot; style=&quot;font-size: 48px;&quot;&gt;&lt;div class=&quot;markdown prose w-full break-words dark:prose-invert dark&quot; style=&quot;font-size: 48px;&quot;&gt;&lt;p style=&quot;font-size: 48px;&quot;&gt;At Cuisine Concepts, we are passionate about empowering home cooks and culinary enthusiasts to explore their creativity and discover their culinary potential. Founded on the belief that everyone can become a master in the kitchen with the right tools and inspiration, Cuisine Concepts has been dedicated to providing high-quality kitchen utensils and appliances since our inception.&lt;/p&gt;&lt;p style=&quot;font-size: 48px;&quot;&gt;Our journey began with a shared love for cooking and a desire to make the culinary experience more enjoyable and rewarding for individuals of all skill levels. We understand the joy and satisfaction that comes from creating delicious meals from scratch, whether it&#39;s experimenting with new recipes, mastering cooking techniques, or simply enjoying the process of preparing food for loved ones.&lt;span style=&quot;background-color: initial;&quot;&gt;.&lt;/span&gt;&lt;/p&gt;&lt;/div&gt;&lt;/div&gt;&lt;/div&gt;" style="rounded=0;whiteSpace=wrap;html=1;sketch=1;hachureGap=4;jiggle=2;curveFitting=1;fontFamily=Architects Daughter;fontSource=https%3A%2F%2Ffonts.googleapis.com%2Fcss%3Ffamily%3DArchitects%2BDaughter;fontSize=48;strokeWidth=0;" vertex="1" parent="1">
          <mxGeometry x="40" y="880" width="1440" height="920" as="geometry" />
        </mxCell>
        <mxCell id="F2z6CYoA8_rbXcpVKslj-5" value="&lt;div class=&quot;flex flex-grow flex-col max-w-full&quot; style=&quot;font-size: 48px;&quot;&gt;&lt;div class=&quot;min-h-[20px] text-message flex flex-col items-start gap-3 whitespace-pre-wrap break-words [.text-message+&amp;amp;]:mt-5 overflow-x-auto&quot; data-message-id=&quot;21cb947c-45a8-4a94-b8b2-4fee92300908&quot; data-message-author-role=&quot;assistant&quot; style=&quot;font-size: 48px;&quot;&gt;&lt;div class=&quot;markdown prose w-full break-words dark:prose-invert dark&quot; style=&quot;font-size: 48px;&quot;&gt;&lt;p style=&quot;font-size: 48px;&quot;&gt;&lt;span style=&quot;background-color: initial;&quot;&gt;At the heart of our brand are our values of innovation, quality, and accessibility. We believe in offering innovative kitchen tools and appliances that not only simplify cooking tasks but also inspire creativity and elevate the cooking experience. From ergonomic utensils designed for comfort and efficiency to versatile appliances that unleash culinary possibilities, our products are meticulously crafted to meet the needs and aspirations of home cooks and passionate food lovers alike.&lt;/span&gt;&lt;br&gt;&lt;/p&gt;&lt;p style=&quot;font-size: 48px;&quot;&gt;Above all, we are committed to empowering our customers to unleash their culinary potential and embark on a journey of culinary discovery. Whether you&#39;re a seasoned chef or a kitchen novice, Cuisine Concepts is here to support and inspire you every step of the way. Join us as we embark on a delicious adventure, where the possibilities are endless, and every meal is an opportunity to create something extraordinary.&lt;/p&gt;&lt;/div&gt;&lt;/div&gt;&lt;/div&gt;" style="rounded=0;whiteSpace=wrap;html=1;sketch=1;hachureGap=4;jiggle=2;curveFitting=1;fontFamily=Architects Daughter;fontSource=https%3A%2F%2Ffonts.googleapis.com%2Fcss%3Ffamily%3DArchitects%2BDaughter;fontSize=48;strokeWidth=0;" vertex="1" parent="1">
          <mxGeometry x="40" y="2350" width="1440" height="1120" as="geometry" />
        </mxCell>
        <mxCell id="F2z6CYoA8_rbXcpVKslj-6" value="IMG" style="rounded=0;whiteSpace=wrap;html=1;sketch=1;hachureGap=4;jiggle=2;curveFitting=1;fontFamily=Architects Daughter;fontSource=https%3A%2F%2Ffonts.googleapis.com%2Fcss%3Ffamily%3DArchitects%2BDaughter;fontSize=40;" vertex="1" parent="1">
          <mxGeometry x="40" y="1800" width="1430" height="550" as="geometry" />
        </mxCell>
      </root>
    </mxGraphModel>
  </diagram>
</mxfile>
